<svg xmlns="http://www.w3.org/2000/svg" viewBox="0 0 420 320"><rect width="420" height="320" rx="28" fill="#fff8df"/><rect x="64" y="186" width="292" height="38" rx="18" fill="#ff9f43"/><rect x="94" y="222" width="28" height="70" rx="8" fill="#ad6a2a"/><rect x="298" y="222" width="28" height="70" rx="8" fill="#ad6a2a"/><circle cx="116" cy="106" r="32" fill="#ffd1a6"/><circle cx="210" cy="92" r="34" fill="#ffd1a6"/><circle cx="304" cy="106" r="32" fill="#ffd1a6"/><path d="M84 150h64l18 54H66z" fill="#33c5d1"/><path d="M174 137h72l22 67H152z" fill="#ff6f91"/><path d="M272 150h64l18 54H254z" fill="#8367f0"/><ellipse cx="210" cy="193" rx="56" ry="20" fill="#fff" stroke="#17335c" stroke-width="5"/><ellipse cx="210" cy="190" rx="42" ry="12" fill="#ffd85a"/><path d="M186 174c12-12 28-12 48 0" fill="none" stroke="#fff" stroke-width="6" stroke-linecap="round"/><text x="210" y="292" text-anchor="middle" font-family="Verdana" font-size="24" font-weight="700" fill="#17335c">La familia come sopa</text></svg>
