<svg xmlns="http://www.w3.org/2000/svg" xmlns:xlink="http://www.w3.org/1999/xlink" width="500" zoomAndPan="magnify" viewBox="0 0 375 374.999991" height="500" preserveAspectRatio="xMidYMid meet" version="1.0"><defs><clipPath id="3d42ff6445"><path d="M 106 152 L 295.21875 152 L 295.21875 307.917969 L 106 307.917969 Z M 106 152 " clip-rule="nonzero"/></clipPath><clipPath id="718a7bc41f"><path d="M 217.027344 297.855469 C 223.75 289.011719 229.265625 281.070312 245.757812 250.644531 C 249.503906 243.726562 258.871094 229.105469 263.414062 220.433594 C 274.195312 199.84375 291.410156 178.21875 294.8125 165.824219 C 296.824219 158.496094 285.832031 154.640625 275.386719 159.277344 C 264.972656 163.902344 261.375 171.9375 253.71875 181.101562 C 243.265625 193.617188 233.097656 201.664062 231.800781 197.917969 C 228.230469 187.59375 227.351562 176.835938 226.664062 160.414062 C 224.84375 116.8125 231.355469 81.582031 229.953125 67.121094 C 228.789062 55.082031 213.136719 53.601562 210.054688 63.433594 C 203.125 85.5625 194.128906 155.773438 188.582031 156.757812 C 183.210938 157.710938 189.035156 75.386719 181.199219 48.371094 C 177.691406 36.285156 163.394531 35.402344 160.003906 48.128906 C 156.609375 60.871094 159.632812 156.246094 156.417969 158.074219 C 149.457031 162.039062 140.089844 91.332031 127.871094 62.554688 C 124.410156 54.394531 110.058594 59.0625 109.371094 65.773438 C 106.882812 90.011719 135.277344 178.925781 126.917969 178.832031 C 121.753906 178.773438 105.117188 129.988281 96.425781 116.851562 C 90.929688 108.539062 82.257812 109.882812 79.824219 116.851562 C 76.792969 125.519531 105.835938 193.164062 107.492188 214.320312 C 109.582031 241.03125 125.441406 275.34375 135.039062 296.40625 C 140.105469 307.527344 204.710938 314.050781 217.027344 297.855469 Z M 217.027344 297.855469 " clip-rule="evenodd"/></clipPath><clipPath id="e98671a7e4"><path d="M 217 51 L 243 51 L 243 201 L 217 201 Z M 217 51 " clip-rule="nonzero"/></clipPath><clipPath id="748e62de4b"><path d="M 217.027344 297.855469 C 223.75 289.011719 229.265625 281.070312 245.757812 250.644531 C 249.503906 243.726562 258.871094 229.105469 263.414062 220.433594 C 274.195312 199.84375 291.410156 178.21875 294.8125 165.824219 C 296.824219 158.496094 285.832031 154.640625 275.386719 159.277344 C 264.972656 163.902344 261.375 171.9375 253.71875 181.101562 C 243.265625 193.617188 233.097656 201.664062 231.800781 197.917969 C 228.230469 187.59375 227.351562 176.835938 226.664062 160.414062 C 224.84375 116.8125 231.355469 81.582031 229.953125 67.121094 C 228.789062 55.082031 213.136719 53.601562 210.054688 63.433594 C 203.125 85.5625 194.128906 155.773438 188.582031 156.757812 C 183.210938 157.710938 189.035156 75.386719 181.199219 48.371094 C 177.691406 36.285156 163.394531 35.402344 160.003906 48.128906 C 156.609375 60.871094 159.632812 156.246094 156.417969 158.074219 C 149.457031 162.039062 140.089844 91.332031 127.871094 62.554688 C 124.410156 54.394531 110.058594 59.0625 109.371094 65.773438 C 106.882812 90.011719 135.277344 178.925781 126.917969 178.832031 C 121.753906 178.773438 105.117188 129.988281 96.425781 116.851562 C 90.929688 108.539062 82.257812 109.882812 79.824219 116.851562 C 76.792969 125.519531 105.835938 193.164062 107.492188 214.320312 C 109.582031 241.03125 125.441406 275.34375 135.039062 296.40625 C 140.105469 307.527344 204.710938 314.050781 217.027344 297.855469 Z M 217.027344 297.855469 " clip-rule="evenodd"/></clipPath><clipPath id="e6553cde3f"><path d="M 164 38.832031 L 193 38.832031 L 193 160 L 164 160 Z M 164 38.832031 " clip-rule="nonzero"/></clipPath><clipPath id="a60c801296"><path d="M 217.027344 297.855469 C 223.75 289.011719 229.265625 281.070312 245.757812 250.644531 C 249.503906 243.726562 258.871094 229.105469 263.414062 220.433594 C 274.195312 199.84375 291.410156 178.21875 294.8125 165.824219 C 296.824219 158.496094 285.832031 154.640625 275.386719 159.277344 C 264.972656 163.902344 261.375 171.9375 253.71875 181.101562 C 243.265625 193.617188 233.097656 201.664062 231.800781 197.917969 C 228.230469 187.59375 227.351562 176.835938 226.664062 160.414062 C 224.84375 116.8125 231.355469 81.582031 229.953125 67.121094 C 228.789062 55.082031 213.136719 53.601562 210.054688 63.433594 C 203.125 85.5625 194.128906 155.773438 188.582031 156.757812 C 183.210938 157.710938 189.035156 75.386719 181.199219 48.371094 C 177.691406 36.285156 163.394531 35.402344 160.003906 48.128906 C 156.609375 60.871094 159.632812 156.246094 156.417969 158.074219 C 149.457031 162.039062 140.089844 91.332031 127.871094 62.554688 C 124.410156 54.394531 110.058594 59.0625 109.371094 65.773438 C 106.882812 90.011719 135.277344 178.925781 126.917969 178.832031 C 121.753906 178.773438 105.117188 129.988281 96.425781 116.851562 C 90.929688 108.539062 82.257812 109.882812 79.824219 116.851562 C 76.792969 125.519531 105.835938 193.164062 107.492188 214.320312 C 109.582031 241.03125 125.441406 275.34375 135.039062 296.40625 C 140.105469 307.527344 204.710938 314.050781 217.027344 297.855469 Z M 217.027344 297.855469 " clip-rule="evenodd"/></clipPath><clipPath id="6fd3ebd1c8"><path d="M 112 51 L 159 51 L 159 161 L 112 161 Z M 112 51 " clip-rule="nonzero"/></clipPath><clipPath id="3f22fbc494"><path d="M 217.027344 297.855469 C 223.75 289.011719 229.265625 281.070312 245.757812 250.644531 C 249.503906 243.726562 258.871094 229.105469 263.414062 220.433594 C 274.195312 199.84375 291.410156 178.21875 294.8125 165.824219 C 296.824219 158.496094 285.832031 154.640625 275.386719 159.277344 C 264.972656 163.902344 261.375 171.9375 253.71875 181.101562 C 243.265625 193.617188 233.097656 201.664062 231.800781 197.917969 C 228.230469 187.59375 227.351562 176.835938 226.664062 160.414062 C 224.84375 116.8125 231.355469 81.582031 229.953125 67.121094 C 228.789062 55.082031 213.136719 53.601562 210.054688 63.433594 C 203.125 85.5625 194.128906 155.773438 188.582031 156.757812 C 183.210938 157.710938 189.035156 75.386719 181.199219 48.371094 C 177.691406 36.285156 163.394531 35.402344 160.003906 48.128906 C 156.609375 60.871094 159.632812 156.246094 156.417969 158.074219 C 149.457031 162.039062 140.089844 91.332031 127.871094 62.554688 C 124.410156 54.394531 110.058594 59.0625 109.371094 65.773438 C 106.882812 90.011719 135.277344 178.925781 126.917969 178.832031 C 121.753906 178.773438 105.117188 129.988281 96.425781 116.851562 C 90.929688 108.539062 82.257812 109.882812 79.824219 116.851562 C 76.792969 125.519531 105.835938 193.164062 107.492188 214.320312 C 109.582031 241.03125 125.441406 275.34375 135.039062 296.40625 C 140.105469 307.527344 204.710938 314.050781 217.027344 297.855469 Z M 217.027344 297.855469 " clip-rule="evenodd"/></clipPath><clipPath id="96875c6ef8"><path d="M 79.269531 105 L 130 105 L 130 181 L 79.269531 181 Z M 79.269531 105 " clip-rule="nonzero"/></clipPath><clipPath id="deff1bba4d"><path d="M 217.027344 297.855469 C 223.75 289.011719 229.265625 281.070312 245.757812 250.644531 C 249.503906 243.726562 258.871094 229.105469 263.414062 220.433594 C 274.195312 199.84375 291.410156 178.21875 294.8125 165.824219 C 296.824219 158.496094 285.832031 154.640625 275.386719 159.277344 C 264.972656 163.902344 261.375 171.9375 253.71875 181.101562 C 243.265625 193.617188 233.097656 201.664062 231.800781 197.917969 C 228.230469 187.59375 227.351562 176.835938 226.664062 160.414062 C 224.84375 116.8125 231.355469 81.582031 229.953125 67.121094 C 228.789062 55.082031 213.136719 53.601562 210.054688 63.433594 C 203.125 85.5625 194.128906 155.773438 188.582031 156.757812 C 183.210938 157.710938 189.035156 75.386719 181.199219 48.371094 C 177.691406 36.285156 163.394531 35.402344 160.003906 48.128906 C 156.609375 60.871094 159.632812 156.246094 156.417969 158.074219 C 149.457031 162.039062 140.089844 91.332031 127.871094 62.554688 C 124.410156 54.394531 110.058594 59.0625 109.371094 65.773438 C 106.882812 90.011719 135.277344 178.925781 126.917969 178.832031 C 121.753906 178.773438 105.117188 129.988281 96.425781 116.851562 C 90.929688 108.539062 82.257812 109.882812 79.824219 116.851562 C 76.792969 125.519531 105.835938 193.164062 107.492188 214.320312 C 109.582031 241.03125 125.441406 275.34375 135.039062 296.40625 C 140.105469 307.527344 204.710938 314.050781 217.027344 297.855469 Z M 217.027344 297.855469 " clip-rule="evenodd"/></clipPath><clipPath id="05d62c4704"><path d="M 78.222656 37.5 L 296.472656 37.5 L 296.472656 309 L 78.222656 309 Z M 78.222656 37.5 " clip-rule="nonzero"/></clipPath></defs><rect x="-37.5" width="450" fill="#ffffff" y="-37.499999" height="449.999989" fill-opacity="1"/><rect x="-37.5" width="450" fill="#d4d4d2" y="-37.499999" height="449.999989" fill-opacity="1"/><path fill="#ffc59b" d="M 217.027344 297.855469 C 223.75 289.011719 229.265625 281.070312 245.757812 250.644531 C 249.503906 243.726562 258.871094 229.105469 263.414062 220.433594 C 274.195312 199.84375 291.410156 178.21875 294.8125 165.824219 C 296.824219 158.496094 285.832031 154.640625 275.386719 159.277344 C 264.972656 163.902344 261.375 171.9375 253.71875 181.101562 C 243.265625 193.617188 233.097656 201.664062 231.800781 197.917969 C 228.230469 187.59375 227.351562 176.835938 226.664062 160.414062 C 224.84375 116.8125 231.355469 81.582031 229.953125 67.121094 C 228.789062 55.082031 213.136719 53.601562 210.054688 63.433594 C 203.125 85.5625 194.128906 155.773438 188.582031 156.757812 C 183.210938 157.710938 189.035156 75.386719 181.199219 48.371094 C 177.691406 36.285156 163.394531 35.402344 160.003906 48.128906 C 156.609375 60.871094 159.632812 156.246094 156.417969 158.074219 C 149.457031 162.039062 140.089844 91.332031 127.871094 62.554688 C 124.410156 54.394531 110.058594 59.0625 109.371094 65.773438 C 106.882812 90.011719 135.277344 178.925781 126.917969 178.832031 C 121.753906 178.773438 105.117188 129.988281 96.425781 116.851562 C 90.929688 108.539062 82.257812 109.882812 79.824219 116.851562 C 76.792969 125.519531 105.835938 193.164062 107.492188 214.320312 C 109.582031 241.03125 125.441406 275.34375 135.039062 296.40625 C 140.105469 307.527344 204.710938 314.050781 217.027344 297.855469 Z M 217.027344 297.855469 " fill-opacity="1" fill-rule="evenodd"/><g clip-path="url(#3d42ff6445)"><g clip-path="url(#718a7bc41f)"><path fill="#f3ad7b" d="M 280.878906 155.121094 C 305.835938 158.738281 259.476562 207.5 222.875 276.183594 C 211.648438 297.253906 179.738281 299.945312 166.128906 298.742188 C 133.460938 295.855469 120.730469 277.890625 106.472656 251.308594 C 113.875 292.285156 119.511719 329.164062 196.578125 318.949219 C 202.40625 318.175781 243.726562 321.636719 287.847656 234.417969 C 290.132812 229.898438 302.703125 205.058594 307.089844 174.117188 C 309.183594 159.355469 299.738281 147.875 280.878906 155.121094 Z M 280.878906 155.121094 " fill-opacity="1" fill-rule="evenodd"/></g></g><g clip-path="url(#e98671a7e4)"><g clip-path="url(#748e62de4b)"><path fill="#f3ad7b" d="M 217.257812 51.355469 C 233.390625 64.085938 219.160156 93.015625 219.617188 122.710938 C 220.679688 191.65625 226.453125 201.492188 232.320312 200.304688 C 254.246094 195.867188 234.25 167.019531 241.28125 90.484375 C 244.457031 55.949219 226.679688 51.457031 217.257812 51.355469 Z M 217.257812 51.355469 " fill-opacity="1" fill-rule="evenodd"/></g></g><g clip-path="url(#e6553cde3f)"><g clip-path="url(#a60c801296)"><path fill="#f3ad7b" d="M 164.421875 39.410156 C 177.390625 46.40625 179.03125 73.074219 180.597656 98.953125 C 182.316406 127.292969 181.234375 155.40625 184.898438 158.390625 C 194.273438 166.03125 192.679688 144.597656 192.753906 85.710938 C 192.777344 67.121094 186.464844 31.53125 164.421875 39.410156 Z M 164.421875 39.410156 " fill-opacity="1" fill-rule="evenodd"/></g></g><g clip-path="url(#6fd3ebd1c8)"><g clip-path="url(#3f22fbc494)"><path fill="#f3ad7b" d="M 112.84375 54.648438 C 125.351562 59.148438 127.234375 73.835938 130.257812 84.683594 C 138.070312 112.726562 140.402344 143.328125 150.613281 157.632812 C 155.410156 164.351562 160.09375 160.71875 158.566406 149.292969 C 155.261719 124.605469 141.976562 66.8125 141.511719 65.410156 C 134.554688 44.5 114.71875 53.621094 112.84375 54.648438 Z M 112.84375 54.648438 " fill-opacity="1" fill-rule="evenodd"/></g></g><g clip-path="url(#96875c6ef8)"><g clip-path="url(#deff1bba4d)"><path fill="#f3ad7b" d="M 79.925781 111.957031 C 104.863281 117.53125 106.941406 181.226562 126.386719 180.382812 C 134.484375 180.035156 128.140625 158.542969 112.238281 129.710938 C 105.011719 116.613281 99.386719 107.1875 94.21875 105.71875 C 87.960938 103.9375 82.898438 111.625 79.925781 111.957031 Z M 79.925781 111.957031 " fill-opacity="1" fill-rule="evenodd"/></g></g><g clip-path="url(#05d62c4704)"><path fill="#d7794d" d="M 126.78125 177.21875 C 126.828125 177.085938 126.878906 176.929688 126.90625 176.792969 C 127.039062 176.101562 127.078125 175.195312 127.046875 174.097656 C 127.011719 172.828125 126.878906 171.320312 126.667969 169.609375 C 124.925781 155.539062 117.835938 128.070312 112.875 104.160156 C 109.527344 88.015625 107.164062 73.472656 107.96875 65.628906 C 108.136719 63.992188 108.945312 62.441406 110.203125 61.105469 C 111.925781 59.289062 114.515625 57.871094 117.253906 57.214844 C 122.035156 56.066406 127.152344 57.25 129.167969 62 C 138.949219 85.039062 146.910156 134.925781 153.269531 151.929688 C 154 153.886719 154.691406 155.382812 155.378906 156.285156 C 155.425781 156.34375 155.476562 156.40625 155.535156 156.464844 C 155.613281 156.097656 155.703125 155.625 155.757812 155.15625 C 155.992188 153.289062 156.164062 150.535156 156.292969 147.105469 C 157.273438 121.265625 155.917969 57.988281 158.644531 47.765625 C 160.550781 40.605469 165.613281 37.375 170.601562 37.535156 C 175.554688 37.691406 180.59375 41.230469 182.550781 47.980469 C 188.839844 69.65625 186.394531 126.832031 187.910156 148.347656 C 188.082031 150.832031 188.308594 152.824219 188.617188 154.203125 C 188.644531 154.335938 188.683594 154.476562 188.722656 154.609375 C 188.726562 154.601562 188.730469 154.59375 188.734375 154.585938 C 189.429688 153.289062 190.15625 151.167969 190.921875 148.417969 C 196.292969 129.222656 203.164062 80.722656 208.710938 63.011719 C 212.210938 51.839844 230.03125 53.308594 231.355469 66.984375 C 232.761719 81.457031 226.25 116.714844 228.074219 160.355469 C 228.75 176.582031 229.601562 187.21875 233.121094 197.421875 C 233.203125 197.421875 233.347656 197.417969 233.449219 197.398438 C 233.773438 197.335938 234.140625 197.203125 234.546875 197.019531 C 238.539062 195.195312 245.5 188.742188 252.640625 180.195312 C 260.453125 170.84375 264.1875 162.707031 274.8125 157.988281 C 281.574219 154.984375 288.550781 155.382812 292.578125 157.808594 C 295.636719 159.652344 297.160156 162.59375 296.171875 166.199219 C 292.753906 178.648438 275.496094 200.402344 264.660156 221.085938 C 260.117188 229.765625 250.746094 244.394531 246.996094 251.316406 C 230.441406 281.863281 224.898438 289.832031 218.148438 298.707031 C 215.03125 302.808594 208.789062 305.621094 200.953125 307.222656 C 189.664062 309.53125 175.039062 309.441406 162.359375 307.785156 C 153.855469 306.675781 146.222656 304.859375 141.027344 302.613281 C 137.210938 300.960938 134.667969 298.992188 133.757812 296.992188 C 124.105469 275.808594 108.1875 241.292969 106.085938 214.433594 C 104.933594 199.679688 90.378906 162.25 82.808594 138.152344 C 80.492188 130.789062 78.824219 124.648438 78.34375 120.71875 C 78.105469 118.773438 78.171875 117.300781 78.492188 116.382812 C 79.917969 112.304688 83.199219 109.910156 86.902344 109.714844 C 90.460938 109.523438 94.503906 111.390625 97.601562 116.070312 C 104.5625 126.597656 116.636719 159.976562 123.832031 172.9375 C 124.835938 174.746094 125.726562 176.136719 126.496094 176.957031 C 126.578125 177.046875 126.683594 177.140625 126.78125 177.21875 Z M 215.90625 297 C 222.601562 288.191406 228.09375 280.277344 244.519531 249.96875 C 248.265625 243.058594 257.625 228.445312 262.164062 219.777344 C 272.894531 199.285156 290.066406 177.785156 293.453125 165.449219 C 294.074219 163.191406 293.042969 161.382812 291.125 160.226562 C 287.683594 158.15625 281.730469 158.003906 275.957031 160.566406 C 265.757812 165.097656 262.296875 173.03125 254.800781 182.007812 C 247.300781 190.984375 239.910156 197.671875 235.714844 199.585938 C 232.898438 200.871094 231.09375 200.183594 230.472656 198.378906 C 226.863281 187.941406 225.949219 177.070312 225.257812 160.472656 C 223.4375 116.90625 229.953125 81.707031 228.550781 67.257812 C 227.542969 56.855469 214.0625 55.359375 211.402344 63.855469 C 205.859375 81.550781 199 130.003906 193.636719 149.179688 C 192.640625 152.734375 191.667969 155.332031 190.785156 156.644531 C 190.144531 157.605469 189.425781 158.042969 188.828125 158.148438 L 188.117188 158.140625 L 187.480469 157.890625 L 186.949219 157.433594 C 186.78125 157.242188 186.613281 156.988281 186.460938 156.675781 C 185.84375 155.394531 185.378906 152.558594 185.097656 148.546875 C 183.59375 127.15625 186.097656 70.316406 179.84375 48.765625 C 178.296875 43.425781 174.433594 40.480469 170.511719 40.355469 C 166.628906 40.230469 162.847656 42.921875 161.367188 48.492188 C 158.660156 58.652344 160.085938 121.535156 159.109375 147.214844 C 158.90625 152.546875 158.578125 156.332031 158.125 157.828125 C 158.011719 158.195312 157.882812 158.472656 157.761719 158.667969 L 157.457031 159.042969 L 157.117188 159.300781 C 156.027344 159.921875 154.863281 159.789062 153.714844 158.65625 C 152.742188 157.699219 151.683594 155.730469 150.628906 152.917969 C 144.28125 135.9375 136.34375 86.113281 126.574219 63.105469 C 125.128906 59.695312 121.34375 59.136719 117.910156 59.960938 C 115.71875 60.484375 113.628906 61.589844 112.25 63.046875 C 111.441406 63.902344 110.878906 64.871094 110.773438 65.917969 C 109.984375 73.585938 112.359375 87.800781 115.632812 103.585938 C 120.609375 127.578125 127.714844 155.144531 129.464844 169.261719 C 130.015625 173.722656 129.976562 176.941406 129.339844 178.464844 C 129.113281 179.011719 128.808594 179.414062 128.46875 179.695312 L 128.125 179.929688 L 127.734375 180.105469 L 127.320312 180.210938 L 126.902344 180.242188 C 126.339844 180.234375 125.65625 179.992188 124.949219 179.378906 C 123.964844 178.527344 122.734375 176.765625 121.367188 174.308594 C 114.199219 161.390625 102.191406 128.121094 95.25 117.628906 C 92.847656 114 89.8125 112.382812 87.050781 112.53125 C 84.433594 112.667969 82.160156 114.429688 81.152344 117.316406 C 80.835938 118.222656 81.003906 119.863281 81.402344 122.089844 C 82.082031 125.878906 83.5625 131.15625 85.496094 137.304688 C 93.128906 161.597656 107.734375 199.34375 108.894531 214.210938 C 110.972656 240.769531 126.777344 274.878906 136.320312 295.820312 C 137.03125 297.382812 139.160156 298.734375 142.144531 300.023438 C 147.152344 302.1875 154.519531 303.917969 162.722656 304.988281 C 175.101562 306.601562 189.375 306.710938 200.386719 304.457031 C 207.417969 303.019531 213.109375 300.675781 215.90625 297 Z M 215.90625 297 " fill-opacity="1" fill-rule="evenodd"/></g><path fill="#ffc59b" d="M 228.402344 203.214844 C 191.046875 173.765625 187.371094 179.613281 167.886719 187.519531 C 149.539062 194.96875 139.527344 197.527344 142.335938 203.921875 C 145.523438 211.179688 152.867188 217.050781 173.699219 213.40625 C 180.359375 212.238281 190.601562 208.957031 194.929688 213.578125 C 199.257812 218.203125 196.8125 233.394531 199.675781 241.148438 C 205.464844 256.820312 215.59375 268.402344 224.625 251.28125 C 230.042969 241.007812 231.300781 223.476562 231.527344 221.425781 C 232.949219 208.515625 228.4375 203.332031 228.402344 203.214844 Z M 228.402344 203.214844 " fill-opacity="1" fill-rule="evenodd"/><path fill="#d7794d" d="M 219.828125 119.425781 C 212.4375 120.066406 210.746094 119.691406 202.757812 116.417969 C 202.738281 116.410156 202.710938 116.414062 202.699219 116.394531 C 202.597656 116.207031 202.53125 116 202.429688 115.808594 C 202.660156 115.804688 202.84375 115.5625 203.074219 115.554688 C 203.226562 115.554688 208.472656 117.488281 211.714844 118.144531 C 212.644531 118.332031 214.574219 118.742188 219.675781 118.496094 C 220.261719 118.46875 219.734375 118.847656 219.828125 119.425781 Z M 219.828125 119.425781 " fill-opacity="1" fill-rule="evenodd"/><path fill="#d7794d" d="M 253.558594 215.246094 C 246.855469 212.0625 245.585938 210.886719 240.335938 204.023438 C 240.320312 204.007812 240.296875 203.996094 240.296875 203.976562 C 240.304688 203.761719 240.351562 203.546875 240.359375 203.332031 C 240.5625 203.445312 240.84375 203.328125 241.042969 203.441406 C 241.175781 203.515625 244.734375 207.835938 247.199219 210.039062 C 247.910156 210.671875 249.367188 212 253.898438 214.367188 C 254.417969 214.640625 253.769531 214.699219 253.558594 215.246094 Z M 253.558594 215.246094 " fill-opacity="1" fill-rule="evenodd"/><path fill="#d7794d" d="M 215.785156 159.371094 C 208.394531 160.027344 206.707031 159.65625 198.710938 156.394531 C 198.691406 156.386719 198.664062 156.390625 198.652344 156.371094 C 198.550781 156.183594 198.484375 155.976562 198.378906 155.785156 C 198.613281 155.78125 198.796875 155.539062 199.027344 155.53125 C 199.175781 155.527344 204.429688 157.457031 207.671875 158.105469 C 208.601562 158.292969 210.53125 158.695312 215.632812 158.445312 C 216.21875 158.414062 215.691406 158.796875 215.785156 159.371094 Z M 215.785156 159.371094 " fill-opacity="1" fill-rule="evenodd"/><path fill="#d7794d" d="M 177.074219 80.234375 C 169.976562 82.402344 168.25 82.386719 159.753906 80.855469 C 159.730469 80.851562 159.703125 80.859375 159.691406 80.84375 C 159.550781 80.679688 159.445312 80.488281 159.304688 80.324219 C 159.53125 80.273438 159.660156 79.996094 159.882812 79.945312 C 160.03125 79.910156 165.566406 80.707031 168.871094 80.671875 C 169.824219 80.664062 171.792969 80.660156 176.734375 79.355469 C 177.300781 79.207031 176.863281 79.6875 177.074219 80.234375 Z M 177.074219 80.234375 " fill-opacity="1" fill-rule="evenodd"/><path fill="#d7794d" d="M 129.125 83.84375 C 122.699219 87.558594 121.011719 87.933594 112.390625 88.355469 C 112.367188 88.355469 112.34375 88.371094 112.328125 88.359375 C 112.15625 88.230469 112.007812 88.070312 111.832031 87.941406 C 112.039062 87.839844 112.105469 87.539062 112.3125 87.4375 C 112.449219 87.371094 118.019531 86.902344 121.234375 86.121094 C 122.15625 85.898438 124.074219 85.449219 128.597656 83.066406 C 129.117188 82.792969 128.796875 83.359375 129.125 83.84375 Z M 129.125 83.84375 " fill-opacity="1" fill-rule="evenodd"/><path fill="#d7794d" d="M 98.792969 130.667969 C 98.714844 130.890625 98.730469 131.136719 98.648438 131.359375 C 98.632812 131.410156 97.53125 132.238281 97.429688 132.3125 C 94.015625 134.878906 92.25 135.179688 87.347656 135.664062 C 87.335938 135.667969 87.316406 135.679688 87.304688 135.667969 C 87.125 135.550781 86.964844 135.40625 86.785156 135.285156 C 86.972656 135.15625 87.027344 134.882812 87.210938 134.757812 C 87.335938 134.667969 91.597656 134.050781 93.878906 133.097656 C 95.976562 132.21875 98.011719 130.613281 98.089844 130.609375 C 98.328125 130.597656 98.558594 130.679688 98.792969 130.667969 Z M 98.792969 130.667969 " fill-opacity="1" fill-rule="evenodd"/><path fill="#d7794d" d="M 223.59375 121.667969 C 223.417969 121.804688 223.285156 121.992188 223.109375 122.128906 C 223.097656 122.136719 222.121094 122.289062 221.742188 122.285156 C 221.3125 122.28125 220.636719 122.101562 220.632812 122.097656 C 220.480469 121.945312 220.179688 121.851562 220.179688 121.636719 C 220.183594 121.101562 221.46875 121.027344 221.59375 121.019531 C 221.945312 121 222.554688 121.09375 222.972656 121.167969 C 223.019531 121.175781 223.078125 121.164062 223.117188 121.195312 C 223.292969 121.335938 223.417969 121.527344 223.59375 121.667969 Z M 223.59375 121.667969 " fill-opacity="1" fill-rule="evenodd"/><path fill="#d7794d" d="M 255.679688 219.082031 C 255.460938 219.113281 255.25 219.210938 255.03125 219.238281 C 255.015625 219.242188 254.097656 218.875 253.769531 218.683594 C 253.402344 218.464844 252.910156 217.964844 252.910156 217.960938 C 252.855469 217.75 252.640625 217.519531 252.75 217.332031 C 253.023438 216.875 254.171875 217.457031 254.28125 217.515625 C 254.597656 217.675781 255.070312 218.0625 255.398438 218.339844 C 255.433594 218.371094 255.492188 218.390625 255.507812 218.433594 C 255.589844 218.644531 255.601562 218.875 255.679688 219.082031 Z M 255.679688 219.082031 " fill-opacity="1" fill-rule="evenodd"/><path fill="#d7794d" d="M 217.210938 160.019531 C 217.398438 159.894531 217.511719 159.679688 217.703125 159.554688 C 217.714844 159.546875 219.128906 159.429688 219.726562 159.410156 C 220.523438 159.386719 221.328125 159.507812 221.902344 159.59375 C 222.617188 159.703125 222.523438 160.128906 221.910156 160.511719 C 221.90625 160.515625 220.746094 160.683594 220.019531 160.675781 C 219.371094 160.671875 217.707031 160.5 217.695312 160.492188 C 217.507812 160.363281 217.394531 160.148438 217.210938 160.019531 Z M 217.210938 160.019531 " fill-opacity="1" fill-rule="evenodd"/><path fill="#d7794d" d="M 181.222656 81.640625 C 181.078125 81.8125 180.988281 82.027344 180.847656 82.195312 C 180.835938 82.207031 179.914062 82.558594 179.539062 82.632812 C 179.121094 82.71875 178.421875 82.683594 178.417969 82.679688 C 178.238281 82.5625 177.921875 82.535156 177.878906 82.324219 C 177.773438 81.800781 179.015625 81.457031 179.132812 81.425781 C 179.476562 81.332031 180.085938 81.300781 180.511719 81.28125 C 180.5625 81.28125 180.617188 81.257812 180.660156 81.28125 C 180.859375 81.378906 181.023438 81.542969 181.222656 81.640625 Z M 181.222656 81.640625 " fill-opacity="1" fill-rule="evenodd"/><path fill="#d7794d" d="M 133.484375 84.277344 C 133.382812 84.476562 133.34375 84.703125 133.242188 84.902344 C 133.234375 84.914062 132.535156 85.378906 132.226562 85.542969 C 131.8125 85.765625 131.332031 85.859375 130.996094 85.921875 C 130.8125 85.957031 130.828125 85.863281 130.378906 85.699219 C 130.480469 85.503906 130.511719 85.277344 130.613281 85.085938 C 130.617188 85.078125 131.15625 84.644531 131.542969 84.46875 C 131.886719 84.308594 132.839844 84.046875 132.855469 84.050781 C 133.070312 84.105469 133.269531 84.226562 133.484375 84.277344 Z M 133.484375 84.277344 " fill-opacity="1" fill-rule="evenodd"/><path fill="#d7794d" d="M 101.699219 131.441406 C 101.632812 131.652344 101.609375 131.878906 101.542969 132.089844 C 101.539062 132.105469 101.105469 132.523438 100.90625 132.675781 C 100.679688 132.847656 100.40625 132.925781 100.183594 132.980469 C 99.382812 133.1875 99.109375 132.75 99.648438 132.121094 C 100.027344 131.679688 100.21875 131.578125 100.949219 131.328125 C 100.980469 131.316406 101.015625 131.289062 101.050781 131.296875 C 101.269531 131.328125 101.480469 131.40625 101.699219 131.441406 Z M 101.699219 131.441406 " fill-opacity="1" fill-rule="evenodd"/><path fill="#d7794d" d="M 226.054688 90.542969 C 225.832031 90.644531 225.746094 90.949219 225.523438 91.050781 C 225.523438 91.050781 222.625 91.34375 220.882812 91.464844 C 215.574219 91.824219 213.605469 91.351562 205.75 89.257812 C 205.339844 89.144531 205.242188 89.101562 205.339844 88.6875 C 205.390625 88.476562 205.675781 88.347656 205.890625 88.347656 C 206.160156 88.34375 212.777344 89.898438 216.109375 90.242188 C 218.65625 90.503906 221.089844 90.351562 224.695312 90.160156 C 225.441406 90.121094 225.441406 90.117188 225.453125 90.117188 C 225.816406 90.222656 225.691406 90.4375 226.054688 90.542969 Z M 226.054688 90.542969 " fill-opacity="1" fill-rule="evenodd"/><path fill="#d7794d" d="M 273.484375 193.453125 C 273.242188 193.429688 273.015625 193.652344 272.769531 193.628906 C 272.769531 193.628906 270.121094 192.417969 268.554688 191.636719 C 263.792969 189.265625 262.332031 187.867188 256.601562 182.085938 C 256.304688 181.785156 256.246094 181.699219 256.535156 181.390625 C 256.683594 181.234375 256.996094 181.265625 257.183594 181.371094 C 257.417969 181.507812 262.347656 186.191406 265.050781 188.171875 C 267.117188 189.6875 269.296875 190.78125 272.507812 192.4375 C 273.171875 192.78125 273.171875 192.777344 273.179688 192.785156 C 273.441406 193.058594 273.222656 193.183594 273.484375 193.453125 Z M 273.484375 193.453125 " fill-opacity="1" fill-rule="evenodd"/><path fill="#d7794d" d="M 177.410156 113.3125 C 177.207031 113.449219 177.167969 113.75 176.964844 113.886719 C 176.964844 113.886719 174.496094 114.492188 173.027344 114.796875 C 168.492188 115.742188 166.726562 115.550781 159.769531 114.566406 C 159.355469 114.507812 159.257812 114.472656 159.304688 114.054688 C 159.328125 113.839844 159.59375 113.683594 159.804688 113.648438 C 160.0625 113.605469 166.15625 114.257812 169.164062 114.128906 C 172.160156 113.996094 176.617188 112.945312 176.769531 112.972656 C 177.007812 113.011719 177.171875 113.273438 177.410156 113.3125 Z M 177.410156 113.3125 " fill-opacity="1" fill-rule="evenodd"/><path fill="#d7794d" d="M 136.894531 115.992188 C 136.730469 116.167969 136.753906 116.476562 136.589844 116.652344 C 136.570312 116.675781 134.933594 117.480469 134.789062 117.550781 C 129.152344 120.316406 127.929688 120.5 119.992188 121.195312 C 119.972656 121.199219 119.945312 121.210938 119.929688 121.199219 C 119.753906 121.078125 119.597656 120.925781 119.421875 120.800781 C 119.632812 120.714844 119.667969 120.371094 119.878906 120.28125 C 120.121094 120.183594 126.148438 119.453125 129.046875 118.644531 C 131.9375 117.84375 136.039062 115.8125 136.195312 115.804688 C 136.433594 115.789062 136.652344 116.007812 136.894531 115.992188 Z M 136.894531 115.992188 " fill-opacity="1" fill-rule="evenodd"/><path fill="#d7794d" d="M 105.765625 152.605469 C 105.640625 152.804688 105.691406 153.085938 105.566406 153.285156 C 105.5625 153.292969 103.941406 154.382812 103.441406 154.695312 C 100.402344 156.609375 99.367188 156.839844 94.289062 157.535156 C 93.882812 157.589844 93.789062 157.578125 93.710938 157.175781 C 93.671875 156.960938 93.890625 156.75 94.078125 156.640625 C 94.269531 156.527344 98.589844 155.726562 100.648438 154.867188 C 102.414062 154.128906 104.992188 152.5 105.070312 152.492188 C 105.304688 152.464844 105.535156 152.632812 105.765625 152.605469 Z M 105.765625 152.605469 " fill-opacity="1" fill-rule="evenodd"/><path fill="#d7794d" d="M 177.132812 152.660156 C 176.941406 152.808594 176.921875 153.113281 176.730469 153.265625 C 176.707031 153.285156 174.964844 153.824219 174.808594 153.871094 C 168.816406 155.726562 167.578125 155.71875 159.628906 155.167969 C 159.609375 155.167969 159.582031 155.179688 159.566406 155.164062 C 159.410156 155.015625 159.28125 154.839844 159.125 154.691406 C 159.351562 154.636719 159.433594 154.304688 159.660156 154.25 C 159.910156 154.1875 165.980469 154.40625 168.96875 154.058594 C 171.949219 153.714844 176.316406 152.351562 176.46875 152.363281 C 176.710938 152.390625 176.890625 152.636719 177.132812 152.660156 Z M 177.132812 152.660156 " fill-opacity="1" fill-rule="evenodd"/><path fill="#d7794d" d="M 145.636719 156.269531 C 145.511719 156.476562 145.597656 156.769531 145.46875 156.976562 C 145.453125 157.003906 144.007812 158.117188 143.878906 158.214844 C 138.90625 162.046875 137.746094 162.472656 130.101562 164.726562 C 130.082031 164.734375 130.0625 164.753906 130.042969 164.746094 C 129.84375 164.660156 129.664062 164.542969 129.464844 164.457031 C 129.65625 164.328125 129.621094 163.984375 129.8125 163.855469 C 130.027344 163.710938 135.789062 161.796875 138.46875 160.429688 C 141.144531 159.070312 144.765625 156.265625 144.914062 156.226562 C 145.148438 156.164062 145.402344 156.332031 145.636719 156.269531 Z M 145.636719 156.269531 " fill-opacity="1" fill-rule="evenodd"/><path fill="#d7794d" d="M 117.25 178.207031 C 117.160156 178.425781 117.253906 178.691406 117.164062 178.910156 C 117.152344 178.929688 116.183594 179.832031 116.097656 179.910156 C 112.746094 183.03125 111.894531 183.382812 106.65625 185.046875 C 106.644531 185.050781 106.628906 185.066406 106.617188 185.0625 C 106.414062 184.980469 106.226562 184.875 106.027344 184.792969 C 106.199219 184.648438 106.164062 184.332031 106.335938 184.1875 C 106.503906 184.046875 110.609375 182.527344 112.519531 181.320312 C 114.152344 180.289062 116.46875 178.230469 116.542969 178.207031 C 116.769531 178.144531 117.023438 178.269531 117.25 178.207031 Z M 117.25 178.207031 " fill-opacity="1" fill-rule="evenodd"/><path fill="#d7794d" d="M 230.375 94.003906 C 230.203125 94.152344 230.148438 94.414062 229.976562 94.5625 C 229.933594 94.597656 228.257812 95.007812 228.109375 95.042969 C 226.445312 95.449219 225.777344 95.511719 223.472656 95.464844 C 223.464844 95.464844 223.457031 95.472656 223.449219 95.464844 C 223.28125 95.328125 223.125 95.179688 222.960938 95.042969 C 223.144531 94.929688 223.199219 94.664062 223.382812 94.554688 C 223.453125 94.507812 224.628906 94.351562 229.246094 93.714844 C 229.292969 93.707031 229.785156 93.640625 229.792969 93.640625 C 230.011719 93.714844 230.160156 93.933594 230.375 94.003906 Z M 230.375 94.003906 " fill-opacity="1" fill-rule="evenodd"/><path fill="#d7794d" d="M 275.472656 198.628906 C 275.25 198.667969 275.070312 198.867188 274.847656 198.90625 C 274.792969 198.917969 273.140625 198.421875 272.992188 198.378906 C 271.351562 197.890625 270.742188 197.605469 268.777344 196.402344 C 268.769531 196.398438 268.757812 196.398438 268.757812 196.390625 C 268.683594 196.1875 268.621094 195.980469 268.546875 195.777344 C 268.761719 195.773438 268.945312 195.574219 269.160156 195.570312 C 269.242188 195.566406 270.335938 196.027344 274.644531 197.808594 C 274.6875 197.824219 275.148438 198.015625 275.152344 198.023438 C 275.304688 198.195312 275.320312 198.457031 275.472656 198.628906 Z M 275.472656 198.628906 " fill-opacity="1" fill-rule="evenodd"/><path fill="#d7794d" d="M 181.214844 116.484375 C 178.425781 117.691406 178.046875 117.808594 175.699219 118.050781 C 175.304688 118.089844 175.21875 118.085938 175.136719 117.699219 C 175.089844 117.488281 175.371094 117.335938 175.488281 117.15625 C 175.511719 117.121094 177.558594 116.5 180.878906 115.609375 C 181.445312 115.457031 181.007812 115.9375 181.214844 116.484375 Z M 181.214844 116.484375 " fill-opacity="1" fill-rule="evenodd"/><path fill="#d7794d" d="M 141.460938 117.578125 C 141.40625 117.792969 141.371094 118.011719 141.3125 118.222656 C 141.304688 118.257812 140.046875 119.148438 139.933594 119.226562 C 138.710938 120.085938 138.183594 120.347656 136.292969 120.996094 C 136.242188 121.011719 136.246094 120.980469 135.664062 120.78125 C 135.792969 120.605469 135.761719 120.347656 135.886719 120.171875 C 135.929688 120.113281 137.816406 119.035156 140.792969 117.445312 C 140.839844 117.421875 140.84375 117.457031 141.460938 117.578125 Z M 141.460938 117.578125 " fill-opacity="1" fill-rule="evenodd"/><path fill="#d7794d" d="M 108.921875 153.8125 C 108.898438 154.03125 108.886719 154.253906 108.863281 154.472656 C 108.859375 154.507812 108.046875 155.285156 107.976562 155.355469 C 107.175781 156.125 106.792969 156.367188 105.492188 156.933594 C 104.832031 157.21875 104.691406 156.8125 104.996094 156.160156 C 105.003906 156.148438 105.820312 155.46875 106.214844 155.179688 C 106.667969 154.847656 108.261719 153.75 108.265625 153.75 C 108.484375 153.765625 108.703125 153.796875 108.921875 153.8125 Z M 108.921875 153.8125 " fill-opacity="1" fill-rule="evenodd"/><path fill="#d7794d" d="M 181.398438 154.9375 C 181.3125 155.140625 181.242188 155.347656 181.152344 155.550781 C 181.140625 155.585938 179.757812 156.265625 179.632812 156.328125 C 178.292969 156.984375 177.730469 157.160156 175.761719 157.507812 C 175.710938 157.515625 175.71875 157.484375 175.175781 157.195312 C 175.328125 157.042969 175.339844 156.785156 175.492188 156.628906 C 175.542969 156.578125 177.570312 155.808594 180.757812 154.703125 C 180.808594 154.683594 180.804688 154.71875 181.398438 154.9375 Z M 181.398438 154.9375 " fill-opacity="1" fill-rule="evenodd"/><path fill="#d7794d" d="M 150.410156 157.578125 C 148.375 159.835938 148.078125 160.097656 146.039062 161.292969 C 145.992188 161.320312 145.988281 161.285156 145.382812 161.207031 C 145.472656 161.007812 145.390625 160.761719 145.480469 160.566406 C 145.507812 160.5 147.140625 159.070312 149.746094 156.921875 C 150.195312 156.550781 149.996094 157.167969 150.410156 157.578125 Z M 150.410156 157.578125 " fill-opacity="1" fill-rule="evenodd"/><path fill="#d7794d" d="M 120.53125 178.859375 C 120.542969 179.082031 120.566406 179.300781 120.578125 179.519531 C 120.578125 179.554688 119.890625 180.46875 119.832031 180.546875 C 119.164062 181.429688 118.835938 181.734375 117.609375 182.53125 C 117.316406 182.722656 117.296875 182.515625 116.953125 182.496094 C 117.011719 182.285156 116.941406 182.050781 117.003906 181.839844 C 117.003906 181.832031 117.523438 181.230469 117.871094 180.863281 C 118.222656 180.488281 119.050781 179.683594 119.859375 178.921875 C 119.898438 178.882812 119.910156 178.917969 120.53125 178.859375 Z M 120.53125 178.859375 " fill-opacity="1" fill-rule="evenodd"/><path fill="#d7794d" d="M 177.457031 187.242188 C 177.308594 187.5 177.261719 187.808594 177.109375 188.066406 C 177.109375 188.070312 174.992188 188.984375 173.25 189.679688 C 154.796875 197.089844 139.421875 199.144531 118.578125 201.601562 C 118.292969 201.636719 112.707031 202.269531 112.703125 202.269531 C 112.53125 202.222656 112.328125 202.234375 112.183594 202.125 C 112.179688 202.121094 111.910156 201.667969 111.914062 201.664062 C 111.957031 201.492188 111.945312 201.292969 112.050781 201.15625 C 112.277344 200.851562 112.328125 200.902344 112.703125 200.839844 C 144.964844 195.523438 155.550781 193.902344 168.523438 189.734375 C 172.9375 188.316406 176.617188 186.886719 176.625 186.886719 C 176.917969 186.96875 177.167969 187.160156 177.457031 187.242188 Z M 177.457031 187.242188 " fill-opacity="1" fill-rule="evenodd"/><path fill="#d7794d" d="M 151.371094 207.492188 C 151.339844 207.238281 151.34375 207.226562 151.5 207.027344 C 151.726562 206.730469 151.777344 206.796875 152.144531 206.742188 C 180.574219 202.410156 191.855469 199.675781 207.960938 193.042969 C 215.011719 190.136719 222.511719 186.835938 222.589844 186.835938 C 222.765625 186.832031 222.953125 186.761719 223.125 186.824219 C 223.128906 186.828125 223.519531 187.1875 223.519531 187.191406 C 223.523438 187.367188 223.589844 187.550781 223.527344 187.71875 C 223.390625 188.085938 223.324219 188.042969 222.972656 188.210938 C 198.433594 200.054688 191.753906 203.367188 157.40625 207.433594 C 156.984375 207.484375 152.144531 208.058594 152.082031 208.039062 C 151.652344 207.917969 151.644531 207.929688 151.613281 207.90625 C 151.410156 207.753906 151.402344 207.742188 151.371094 207.492188 Z M 151.371094 207.492188 " fill-opacity="1" fill-rule="evenodd"/><path fill="#f3ad7b" d="M 222.917969 194.011719 C 199.28125 207.425781 176.351562 218.0625 173.160156 242.1875 C 169.421875 270.441406 192.125 278.492188 202.132812 287.378906 C 173.402344 272.589844 163.175781 255.054688 167.144531 238.882812 C 171.828125 219.789062 195.640625 202.589844 222.917969 194.011719 Z M 222.917969 194.011719 " fill-opacity="1" fill-rule="evenodd"/><path fill="#d7794d" d="M 213.25 291.359375 C 213.230469 291.4375 213.121094 291.984375 212.355469 291.828125 C 206.828125 290.699219 178.046875 280.300781 168.226562 259.386719 C 156.867188 235.195312 176.125 214.050781 207.273438 199.046875 C 215.21875 195.222656 221.476562 193.03125 222.589844 192.605469 C 223.105469 192.410156 223.113281 192.582031 223.515625 192.953125 C 223.515625 192.957031 223.535156 193.488281 223.53125 193.496094 C 223.40625 193.839844 223.359375 193.816406 223.019531 193.953125 C 218.792969 195.648438 167.011719 215.242188 167.316406 245.945312 C 167.4375 258.101562 175.648438 267.167969 177.054688 268.757812 C 188.816406 282.050781 207.847656 289.5 212.621094 290.578125 C 213.371094 290.75 213.261719 291.28125 213.25 291.359375 Z M 213.25 291.359375 " fill-opacity="1" fill-rule="evenodd"/></svg>