<svg xmlns="http://www.w3.org/2000/svg" viewBox="0 0 420 420" role="img" aria-labelledby="title">
  <title id="title">Mascota guía Lía</title>
  <rect width="420" height="420" rx="60" fill="#eaf9ff"/>
  <circle cx="210" cy="152" r="86" fill="#ffd85a"/>
  <path d="M128 160c15-70 149-70 164 0 15-32 2-94-82-94s-97 62-82 94z" fill="#17335c"/>
  <circle cx="176" cy="154" r="10" fill="#17335c"/>
  <circle cx="244" cy="154" r="10" fill="#17335c"/>
  <path d="M182 196c20 18 45 18 64 0" fill="none" stroke="#17335c" stroke-width="9" stroke-linecap="round"/>
  <circle cx="145" cy="176" r="15" fill="#ff9f9f" opacity=".8"/>
  <circle cx="275" cy="176" r="15" fill="#ff9f9f" opacity=".8"/>
  <path d="M118 270c15-53 170-53 185 0l18 82H100l18-82z" fill="#8367f0"/>
  <path d="M130 254c32 34 128 34 160 0 22 24 34 58 36 98H94c2-40 14-74 36-98z" fill="#33c5d1"/>
  <rect x="256" y="245" width="36" height="118" rx="13" transform="rotate(23 274 304)" fill="#ff9f43"/>
  <path d="M296 246l23-20-2 31z" fill="#17335c"/>
</svg>
