<svg xmlns="http://www.w3.org/2000/svg" viewBox="0 0 420 320"><rect width="420" height="320" rx="28" fill="#fff2f7"/><rect y="226" width="420" height="94" fill="#c9efff"/><circle cx="205" cy="78" r="40" fill="#ffd1a6"/><path d="M160 88c8-60 86-61 94-1-23-22-66-22-94 1z" fill="#5b3a29"/><circle cx="190" cy="78" r="4" fill="#17335c"/><circle cx="220" cy="78" r="4" fill="#17335c"/><path d="M191 99c12 8 26 8 38 0" fill="none" stroke="#17335c" stroke-width="5" stroke-linecap="round"/><path d="M164 130h88l26 91H138z" fill="#8367f0"/><path d="M110 150h95c18 0 32 14 32 32v66H142c-18 0-32-14-32-32z" fill="#33c5d1"/><path d="M237 182c0-18 14-32 32-32h42v98h-74z" fill="#ffd85a"/><path d="M237 182v66" stroke="#17335c" stroke-width="5"/><text x="210" y="292" text-anchor="middle" font-family="Verdana" font-size="24" font-weight="700" fill="#17335c">La niña lee</text></svg>
