<svg xmlns="http://www.w3.org/2000/svg" viewBox="0 0 420 320"><rect width="420" height="320" rx="28" fill="#bff3ff"/><rect y="218" width="420" height="102" fill="#72d572"/><circle cx="168" cy="74" r="36" fill="#ffd1a6"/><path d="M132 78c6-45 67-52 79-10-20-14-49-8-79 10z" fill="#17335c"/><circle cx="156" cy="74" r="4" fill="#17335c"/><circle cx="183" cy="74" r="4" fill="#17335c"/><path d="M156 94c10 8 23 8 34 0" fill="none" stroke="#17335c" stroke-width="5" stroke-linecap="round"/><path d="M135 122h70l20 75h-104z" fill="#ff6f91"/><path d="M141 132l-50 26" stroke="#ffd1a6" stroke-width="16" stroke-linecap="round"/><path d="M199 134l48 22" stroke="#ffd1a6" stroke-width="16" stroke-linecap="round"/><path d="M149 194l-34 62" stroke="#264066" stroke-width="18" stroke-linecap="round"/><path d="M196 194l54 42" stroke="#264066" stroke-width="18" stroke-linecap="round"/><circle cx="315" cy="246" r="33" fill="#fff" stroke="#17335c" stroke-width="5"/><path d="M315 214l14 18-14 15-14-15zM286 240l20 7-1 22-21-10zM344 240l-20 7 1 22 21-10z" fill="#17335c"/></svg>
