<svg xmlns="http://www.w3.org/2000/svg" viewBox="0 0 420 320"><rect width="420" height="320" rx="28" fill="#eaf9ff"/><rect x="50" y="42" width="320" height="70" rx="14" fill="#17335c"/><path d="M80 92h260" stroke="#fff" stroke-width="5"/><circle cx="128" cy="152" r="34" fill="#ffd1a6"/><circle cx="210" cy="142" r="36" fill="#ffd1a6"/><circle cx="292" cy="152" r="34" fill="#ffd1a6"/><path d="M96 194h64l18 66H78z" fill="#ff6f91"/><path d="M174 186h72l22 74H152z" fill="#33c5d1"/><path d="M260 194h64l18 66H242z" fill="#ffd85a"/><path d="M112 157c10 10 22 10 32 0M194 147c12 12 24 12 36 0M276 157c10 10 22 10 32 0" fill="none" stroke="#17335c" stroke-width="5" stroke-linecap="round"/><text x="210" y="296" text-anchor="middle" font-family="Verdana" font-size="24" font-weight="700" fill="#17335c">Los niños cantan</text></svg>
